:SAMPLES-PER-SECOND 30
:FULLY-SPECIFIED
:DEGREES
225
root  -4.19622 40.8519 -1.92957 -2.08841 -63.4962 5.08618
RightUpLeg  4.65748 -3.04602 0.647358
RightLeg  -7.91122 -46.6594 7.87641
RightFoot  -2.73148 -0.125477 1.4511
RightToes  -3.10678e-008 1.75238e-005 3.56266e-009
Spine  14.7546 5.38021 -3.74785
Spine1  -21.1297 4.87465 2.78172
HEad  -7.28897 -0.112443 -1.22225
LeftShoulder1  0.165135 2.73776 -14.6649
LeftArm  -40.7712 -41.5003 -29.2594
LeftForeArm  135.72 -76.095 -134.465
LeftHand  -0.630648 -4.63946 7.59089
RightShoulder  1.58833 2.39849 20.6013
RightArm  -1.81292 -32.6306 34.1598
RightForeArm  26.323 64.1846 21.1742
RightHand  -0.453003 7.67641 -4.38878
LeftUpLeg  -3.81569 0.0375323 2.74159
LeftLeg  -1.24643 -7.56031 -0.462865
LeftFoot  2.36517 0.803911 -6.80424
LeftToes  4.7643e-008 1.47522e-008 1.32869e-009
226
root  -4.18533 40.8587 -1.8633 -2.02963 -63.8932 5.05637
RightUpLeg  4.53861 -3.05733 0.567472
RightLeg  -7.5999 -46.2877 7.59191
RightFoot  -2.67147 -0.138761 1.65716
RightToes  -3.10678e-008 1.75238e-005 3.56266e-009
Spine  13.1336 5.46163 -5.6117
Spine1  -19.212 4.83557 5.71893
HEad  -8.03368 -0.106422 -1.78806
LeftShoulder1  0.148694 2.83939 -15.4335
LeftArm  -41.1886 -42.5063 -29.2487
LeftForeArm  135.576 -76.5759 -132.723
LeftHand  -0.650605 -4.96125 7.57992
RightShoulder  1.64674 2.64471 20.4623
RightArm  -1.78984 -31.9227 34.4135
RightForeArm  25.3355 63.2159 20.2568
RightHand  -0.398193 8.20586 -3.77723
LeftUpLeg  -3.80216 0.121865 2.73662
LeftLeg  -1.16887 -7.26914 -0.590691
LeftFoot  2.34167 0.7609 -6.45711
LeftToes  4.7643e-008 1.47522e-008 1.32869e-009
227
root  -4.15263 40.8681 -1.7844 -2.03528 -64.4107 4.8877
RightUpLeg  4.63946 -3.0137 0.543538
RightLeg  -7.44583 -45.8445 7.37977
RightFoot  -2.53414 -0.137676 1.6416
RightToes  -3.10678e-008 1.75238e-005 3.56266e-009
Spine  13.1911 5.31306 -5.40169
Spine1  -19.1724 4.70477 5.61839
HEad  -8.21234 -0.44223 -1.54628
LeftShoulder1  0.261603 2.34085 -15.6842
LeftArm  -39.7348 -42.4421 -29.7096
LeftForeArm  132.014 -77.2194 -129.3
LeftHand  -0.759397 -5.06917 8.72622
RightShoulder  1.63655 2.58484 20.5564
RightArm  -1.87062 -32.2961 34.9932
RightForeArm  25.4908 63.1084 20.1322
RightHand  -0.498991 7.50454 -4.8416
LeftUpLeg  -3.58412 0.105674 2.71019
LeftLeg  -1.11079 -6.72739 -0.543252
LeftFoot  2.27035 0.746952 -6.37084
LeftToes  4.7643e-008 1.47522e-008 1.32869e-009
228
root  -4.09969 40.8731 -1.71775 -2.12338 -64.9337 4.80435
RightUpLeg  4.64735 -3.07353 0.442732
RightLeg  -7.11422 -45.3251 7.11348
RightFoot  -2.46821 -0.139673 1.67509
RightToes  -3.10678e-008 1.75238e-005 3.56266e-009
Spine  13.5147 4.89148 -5.33487
Spine1  -19.4674 4.29675 5.40722
HEad  -8.18986 0.353878 -1.00776
LeftShoulder1  0.259205 2.3306 -15.2184
LeftArm  -37.7379 -41.8086 -31.9671
LeftForeArm  127.981 -78.0272 -124.471
LeftHand  -0.604765 -4.81783 7.15348
RightShoulder  1.79997 2.98907 21.47
RightArm  -1.60701 -32.116 34.7007
RightForeArm  25.8818 62.9641 19.9388
RightHand  -0.44157 7.93214 -4.21136
LeftUpLeg  -3.36879 0.0370508 2.62119
LeftLeg  -1.10193 -6.10806 -0.483424
LeftFoot  2.27343 0.71222 -6.07951
LeftToes  4.7643e-008 1.47522e-008 1.32869e-009
229
root  -4.0391 40.8804 -1.66858 -2.20074 -65.5149 4.73154
RightUpLeg  4.64288 -3.11155 0.359649
RightLeg  -6.89454 -44.7805 6.93664
RightFoot  -2.39916 -0.137175 1.64
RightToes  -3.10678e-008 1.75238e-005 3.56266e-009
Spine  12.5842 4.66957 -6.17745
Spine1  -17.6595 3.98157 6.90191
HEad  -8.86153 0.430999 -1.11193
LeftShoulder1  0.351912 1.9938 -16.5068
LeftArm  -36.3213 -40.4542 -31.9631
LeftForeArm  121.853 -78.5715 -119.516
LeftHand  -0.486567 -4.06972 6.25064
RightShoulder  1.80471 2.95913 21.6819
RightArm  -1.64017 -30.8088 34.9573
RightForeArm  26.2443 62.9489 19.88
RightHand  -0.395283 8.22974 -3.73664
LeftUpLeg  -3.13667 0.0630563 2.59269
LeftLeg  -1.20951 -5.57245 -0.486435
LeftFoot  2.34727 0.678174 -5.76662
LeftToes  4.7643e-008 1.47522e-008 1.32869e-009
230
root  -3.96232 40.8911 -1.6248 -2.14838 -66.0867 4.50183
RightUpLeg  4.72725 -3.01453 0.391707
RightLeg  -7.00234 -44.3707 6.91937
RightFoot  -2.17819 -0.129207 1.52112
RightToes  -3.10678e-008 1.75238e-005 3.56266e-009
Spine  12.4653 4.42055 -6.16465
Spine1  -16.8104 3.7041 7.04661
HEad  -9.22325 -0.294841 -0.538041
LeftShoulder1  0.480078 1.48742 -17.137
LeftArm  -33.8619 -38.7444 -33.8461
LeftForeArm  115.284 -79.2718 -112.256
LeftHand  -0.567146 -4.27526 7.09174
RightShoulder  1.73628 2.68348 21.8179
RightArm  -2.10763 -30.2589 35.6533
RightForeArm  26.2604 63.3097 20.2417
RightHand  -0.39794 7.99381 -3.81933
LeftUpLeg  -2.95325 0.129887 2.62511
LeftLeg  -1.24344 -5.05474 -0.482544
LeftFoot  2.40901 0.652592 -5.53216
LeftToes  4.7643e-008 1.47522e-008 1.32869e-009
231
root  -3.87576 40.8995 -1.59564 -2.02432 -66.6505 4.32736
RightUpLeg  4.6589 -2.85067 0.45462
RightLeg  -7.1306 -44.0225 6.86814
RightFoot  -1.9065 -0.124325 1.45113
RightToes  -3.10678e-008 1.75238e-005 3.56266e-009
Spine  12.6581 4.01238 -6.38976
Spine1  -16.5045 3.25438 7.26999
HEad  -9.86439 1.14458 0.0880371
LeftShoulder1  0.513565 1.36176 -17.1767
LeftArm  -31.1449 -36.0485 -36.5556
LeftForeArm  106.273 -79.7721 -103.364
LeftHand  -0.625975 -4.37483 7.71766
RightShoulder  1.89595 3.06945 22.6641
RightArm  -2.23033 -29.7892 35.4208
RightForeArm  26.158 63.6503 20.6123
RightHand  -0.459739 7.89543 -4.3943
LeftUpLeg  -2.90669 0.221631 2.69233
LeftLeg  -1.31651 -4.59155 -0.54958
LeftFoot  2.54525 0.632055 -5.31545
LeftToes  4.7643e-008 1.47522e-008 1.32869e-009
232
root  -3.75334 40.9058 -1.57973 -1.68756 -67.3712 3.98792
RightUpLeg  4.29694 -2.70264 0.551467
RightLeg  -6.8351 -43.5577 6.60043
RightFoot  -1.74909 -0.113867 1.29552
RightToes  -3.10678e-008 1.75238e-005 3.56266e-009
Spine  12.2472 3.98208 -6.95673
Spine1  -15.1347 3.08711 8.4665
HEad  -10.6752 1.14624 0.0774858
LeftShoulder1  0.757362 0.521169 -18.8596
LeftArm  -29.1278 -33.4445 -36.8658
LeftForeArm  95.5679 -80.0414 -92.4356
LeftHand  -0.688732 -4.64037 8.26558
RightShoulder  1.80298 2.82593 22.284
RightArm  -2.23909 -29 35.8143
RightForeArm  26.8367 64.085 20.9909
RightHand  -0.36346 8.76783 -3.35643
LeftUpLeg  -3.04991 0.374758 2.83818
LeftLeg  -1.23349 -4.02908 -0.637798
LeftFoot  2.601 0.613828 -5.14796
LeftToes  4.7643e-008 1.47522e-008 1.32869e-009
233
root  -3.63557 40.9044 -1.56706 -1.51282 -68.1635 3.77191
RightUpLeg  4.00913 -2.58581 0.602398
RightLeg  -6.54774 -42.9684 6.32866
RightFoot  -1.67114 -0.108116 1.22441
RightToes  -3.10678e-008 1.75238e-005 3.56266e-009
Spine  12.0597 3.53043 -6.78727
Spine1  -13.8404 2.60332 8.08492
HEad  -11.3916 0.928871 1.03107
LeftShoulder1  0.821258 0.340954 -19.4455
LeftArm  -27.8965 -31.2719 -36.9696
LeftForeArm  87.2682 -80.0133 -83.7933
LeftHand  -0.610285 -4.19542 7.61726
RightShoulder  1.82681 2.8255 22.6853
RightArm  -2.12778 -27.7176 36.2735
RightForeArm  26.4177 63.9148 20.8603
RightHand  -0.420259 8.32089 -3.92712
LeftUpLeg  -3.05009 0.405418 2.89961
LeftLeg  -1.26329 -3.23979 -0.623938
LeftFoot  2.63442 0.591808 -4.95775
LeftToes  4.7643e-008 1.47522e-008 1.32869e-009
234
root  -3.50874 40.9105 -1.57528 -1.49506 -69.0859 3.7226
RightUpLeg  3.80191 -2.52754 0.583833
RightLeg  -6.56338 -42.1526 6.30799
RightFoot  -1.48709 -0.0853284 0.915654
RightToes  -3.10678e-008 1.75238e-005 3.56266e-009
Spine  12.5888 3.23078 -6.96698
Spine1  -13.5308 2.25397 7.92418
HEad  -12.4243 2.43596 1.76061
LeftShoulder1  0.842729 0.270636 -19.5521
LeftArm  -27.8542 -29.1766 -36.9846
LeftForeArm  85.7738 -79.9614 -82.9426
LeftHand  -0.394211 -3.1846 5.61048
RightShoulder  1.93701 3.0729 23.3031
RightArm  -1.98583 -27.2419 36.0967
RightForeArm  26.6006 64.0135 20.9439
RightHand  -0.437391 8.52741 -4.02189
LeftUpLeg  -3.00399 0.535602 2.9982
LeftLeg  -1.44747 -2.48979 -0.73085
LeftFoot  2.77165 0.611932 -5.07784
LeftToes  4.7643e-008 1.47522e-008 1.32869e-009
235
root  -3.40655 40.92 -1.58967 -1.05197 -70.022 3.51965
RightUpLeg  3.30595 -2.40582 0.630319
RightLeg  -6.54342 -41.3657 6.31884
RightFoot  -1.30132 -0.0692476 0.722989
RightToes  -3.10678e-008 1.75238e-005 3.56266e-009
Spine  12.295 3.07867 -7.46847
Spine1  -12.6614 2.00873 8.27548
HEad  -13.341 2.90496 2.2023
LeftShoulder1  0.793087 0.486118 -19.7763
LeftArm  -28.3641 -28.7505 -37.5585
LeftForeArm  87.6418 -80.0061 -84.4671
LeftHand  -0.414044 -3.55228 5.60852
RightShoulder  2.07209 3.45557 23.6454
RightArm  -2.13076 -26.9558 35.9384
RightForeArm  26.9308 63.9529 20.8356
RightHand  -0.444768 8.8093 -4.01359
LeftUpLeg  -3.15933 0.640206 3.16247
LeftLeg  -1.73863 -1.56183 -0.78516
LeftFoot  2.96154 0.6256 -5.12944
LeftToes  4.7643e-008 1.47522e-008 1.32869e-009
236
root  -3.31141 40.9245 -1.61053 -0.750946 -70.8211 3.41257
RightUpLeg  2.96667 -2.48767 0.556625
RightLeg  -6.68577 -40.4763 6.58139
RightFoot  -1.19057 -0.0550312 0.561304
RightToes  -3.10678e-008 1.75238e-005 3.56266e-009
Spine  12.547 3.2301 -8.05253
Spine1  -12.5781 2.05577 8.84491
HEad  -14.2122 2.65723 2.37462
LeftShoulder1  0.838623 0.352914 -20.1369
LeftArm  -28.6622 -28.5379 -37.0683
LeftForeArm  88.9364 -80.002 -86.4603
LeftHand  -0.543217 -4.23121 6.84671
RightShoulder  1.94578 3.13785 23.1427
RightArm  -2.33411 -27.0894 36.5355
RightForeArm  26.7444 64.0208 20.9335
RightHand  -0.430093 8.3261 -4.01004
LeftUpLeg  -3.27902 0.697806 3.25816
LeftLeg  -1.98931 -0.757861 -0.833076
LeftFoot  3.22607 0.585138 -4.7301
LeftToes  4.7643e-008 1.47522e-008 1.32869e-009
237
root  -3.22164 40.926 -1.62865 -0.305573 -71.5321 3.18784
RightUpLeg  2.55247 -2.37646 0.632201
RightLeg  -6.73738 -39.8787 6.62574
RightFoot  -1.07472 -0.0364649 0.324163
RightToes  -3.10678e-008 1.75238e-005 3.56266e-009
Spine  12.5199 3.36007 -8.40478
Spine1  -12.3577 2.11924 9.20814
HEad  -14.779 2.70427 2.30453
LeftShoulder1  0.867122 0.250585 -20.1781
LeftArm  -29.342 -29.1067 -36.586
LeftForeArm  88.4181 -79.9926 -86.0205
LeftHand  -0.506927 -3.54927 6.81695
RightShoulder  1.91123 3.0849 22.8351
RightArm  -2.20882 -27.2748 36.5585
RightForeArm  26.8156 64.1856 21.1048
RightHand  -0.431818 8.29807 -4.03319
LeftUpLeg  -3.55989 0.719524 3.34555
LeftLeg  -2.02031 -0.151096 -0.816546
LeftFoot  3.30453 0.576684 -4.64259
LeftToes  4.7643e-008 1.47522e-008 1.32869e-009
238
root  -3.14261 40.9265 -1.64867 -0.181458 -72.121 3.13596
RightUpLeg  2.32138 -2.26201 0.676596
RightLeg  -6.7638 -39.4547 6.58675
RightFoot  -0.982134 -0.0293491 0.248283
RightToes  -3.10678e-008 1.75238e-005 3.56266e-009
Spine  12.881 3.39703 -8.46037
Spine1  -12.6134 2.16226 8.93371
HEad  -14.5916 2.40107 2.58894
LeftShoulder1  0.814233 0.375542 -19.5094
LeftArm  -29.676 -29.7422 -36.8058
LeftForeArm  86.2096 -79.9574 -83.8598
LeftHand  -0.395882 -2.90517 5.78729
RightShoulder  1.94698 3.1307 23.1961
RightArm  -2.07723 -27.3084 36.1957
RightForeArm  26.9681 64.1968 21.0978
RightHand  -0.40487 8.54185 -3.74861
LeftUpLeg  -3.6468 0.676955 3.38518
LeftLeg  -2.12458 0.472353 -0.765363
LeftFoot  3.35241 0.621206 -4.97496
LeftToes  4.7643e-008 1.47522e-008 1.32869e-009
239
root  -3.06385 40.9266 -1.67158 -0.117737 -72.4633 2.99158
RightUpLeg  2.21469 -2.22428 0.716463
RightLeg  -6.65738 -39.1415 6.52125
RightFoot  -0.884407 -0.0193314 0.138411
RightToes  -3.10678e-008 1.75238e-005 3.56266e-009
Spine  13.3139 3.4055 -8.67438
Spine1  -12.7141 2.1106 9.20884
HEad  -14.7606 2.00589 2.65155
LeftShoulder1  0.780662 0.493563 -19.4066
LeftArm  -29.7696 -29.8672 -36.6433
LeftForeArm  85.0664 -79.9524 -81.9088
LeftHand  -0.457374 -3.54424 6.19058
RightShoulder  1.88013 2.8961 23.2313
RightArm  -2.07768 -26.8958 36.331
RightForeArm  26.9006 64.0422 20.9364
RightHand  -0.443261 8.32725 -4.12047
LeftUpLeg  -3.71114 0.813704 3.50914
LeftLeg  -1.99909 0.726823 -0.851239
LeftFoot  3.35824 0.644034 -5.14916
LeftToes  4.7643e-008 1.47522e-008 1.32869e-009
